<?xml version="1.0" encoding="iso-8859-1"?>
<!-- Generator: Adobe Illustrator 18.0.0, SVG Export Plug-In . SVG Version: 6.00 Build 0)  -->
<!DOCTYPE svg PUBLIC "-//W3C//DTD SVG 1.1//EN" "http://www.w3.org/Graphics/SVG/1.1/DTD/svg11.dtd">
<svg version="1.1" id="Capa_1" xmlns="http://www.w3.org/2000/svg" xmlns:xlink="http://www.w3.org/1999/xlink" x="0px" y="0px"
	 viewBox="0 0 359.996 359.996" style="enable-background:new 0 0 359.996 359.996;" xml:space="preserve">
<g>
	<g>
		<path style="fill:#CE593F;" d="M141.35,270.728c0.527,0.087,1.047,0.193,1.558,0.325
			C142.396,270.922,141.877,270.815,141.35,270.728z"/>
		<path style="fill:#CE593F;" d="M97.344,278.875c0.198,0.287,0.414,0.555,0.599,0.854C97.759,279.43,97.542,279.162,97.344,278.875
			z"/>
		<path style="fill:#CE593F;" d="M95.611,276.696c0.262,0.286,0.533,0.562,0.78,0.865C96.144,277.258,95.874,276.983,95.611,276.696
			z"/>
		<path style="fill:#CE593F;" d="M94.593,275.64c-0.286-0.269-0.585-0.517-0.884-0.767C94.008,275.123,94.308,275.371,94.593,275.64
			z"/>
		<path style="fill:#CE593F;" d="M91.626,273.348c0.322,0.204,0.64,0.414,0.951,0.638C92.266,273.762,91.949,273.552,91.626,273.348
			z"/>
		<path style="fill:#CE593F;" d="M143.589,271.242c0.541,0.163,1.072,0.352,1.593,0.564
			C144.661,271.594,144.131,271.404,143.589,271.242z"/>
		<path style="fill:#CE593F;" d="M154.452,279.757c-0.826-1.346-1.8-2.574-2.889-3.676
			C152.651,277.183,153.626,278.412,154.452,279.757z"/>
		<path style="fill:#CE593F;" d="M138.426,270.464c0.765,0,1.516,0.061,2.257,0.155
			C139.941,270.525,139.191,270.464,138.426,270.464z"/>
		<path style="fill:#CE593F;" d="M89.379,272.126c0.333,0.152,0.659,0.321,0.984,0.493
			C90.038,272.447,89.713,272.278,89.379,272.126z"/>
		<path style="fill:#CE593F;" d="M145.654,271.991c0.687,0.302,1.358,0.638,2.003,1.02
			C147.011,272.629,146.342,272.292,145.654,271.991z"/>
		<path style="fill:#CE593F;" d="M147.701,273.039c0.622,0.371,1.219,0.784,1.797,1.224
			C148.919,273.823,148.324,273.41,147.701,273.039z"/>
		<path style="fill:#CE593F;" d="M149.858,274.552c0.483,0.387,0.949,0.796,1.395,1.228
			C150.806,275.348,150.342,274.939,149.858,274.552z"/>
		<path style="fill:#CE593F;" d="M71.107,322.609c-0.18-0.283-0.352-0.572-0.526-0.859
			C70.755,322.038,70.927,322.326,71.107,322.609z"/>
		<path style="fill:#CE593F;" d="M76.308,329.453c0.171,0.19,0.335,0.388,0.51,0.576C76.644,329.842,76.48,329.644,76.308,329.453z"
			/>
		<path style="fill:#CE593F;" d="M68.611,318.238c-0.046-0.091-0.099-0.179-0.145-0.27
			C68.511,318.059,68.564,318.146,68.611,318.238z"/>
		<path style="fill:#CE593F;" d="M73.99,326.688c-0.188-0.241-0.382-0.476-0.566-0.721C73.608,326.212,73.801,326.446,73.99,326.688
			z"/>
		<path style="fill:#CE593F;" d="M154.554,279.757c-2.474-1.249-5.276-1.968-8.189-1.968c-7.339,0-14.157,4.592-17.332,11.698
			c-1.155,2.584-3.675,4.302-6.502,4.444c-3.045,0.153-5.862,0.153-8.908,0c-2.827-0.142-5.338-1.86-6.493-4.444
			c-0.458-1.025-1.001-1.991-1.6-2.906c0.067,0.005,0.131,0.021,0.198,0.024c-2.827-0.142-5.336-1.86-6.49-4.444
			c-0.374-0.837-0.807-1.633-1.277-2.397c-2.511-1.271-5.207-1.976-8.066-1.976c-10.57,0-19.093,9.212-19.093,20.534
			c0,0.217,0,2.066,0,2.539c0,13.595,4.823,25.965,12.798,35.168c7.602,5.624,16.84,8.924,26.718,8.924
			c26.148,0,47.484-23.066,47.484-51.417c0-0.473,0-2.359,0-2.539C157.803,286.849,156.538,282.99,154.554,279.757z"/>
		<path style="fill:#CE593F;" d="M80.474,333.557c-0.271-0.238-0.542-0.476-0.809-0.72
			C79.933,333.081,80.202,333.319,80.474,333.557z"/>
		<path style="fill:#CE593F;" d="M64.781,308.327c0.063,0.228,0.117,0.461,0.184,0.688
			C64.898,308.788,64.844,308.556,64.781,308.327z"/>
		<path style="fill:#CE593F;" d="M66.347,313.104c0.119,0.312,0.244,0.62,0.368,0.93C66.591,313.725,66.466,313.416,66.347,313.104z
			"/>
		<path style="fill:#CE593F;" d="M84.502,270.663c0.285,0.042,0.561,0.119,0.843,0.174
			C85.063,270.782,84.787,270.705,84.502,270.663z"/>
		<path style="fill:#CE593F;" d="M62.979,298.232c0.027,0.327,0.053,0.654,0.086,0.979
			C63.032,298.887,63.007,298.559,62.979,298.232z"/>
		<path style="fill:#CE593F;" d="M63.691,303.642c0.047,0.254,0.106,0.503,0.156,0.757
			C63.796,304.146,63.737,303.896,63.691,303.642z"/>
		<path style="fill:#CE593F;" d="M86.996,271.224c0.328,0.098,0.647,0.223,0.969,0.338
			C87.642,271.447,87.325,271.322,86.996,271.224z"/>
	</g>
	<g>
		<path style="fill:#CE593F;" d="M236.993,278.888c0.194,0.281,0.406,0.545,0.587,0.838
			C237.399,279.433,237.187,279.17,236.993,278.888z"/>
		<path style="fill:#CE593F;" d="M280.989,270.728c0.526,0.087,1.045,0.193,1.556,0.325
			C282.034,270.921,281.515,270.815,280.989,270.728z"/>
		<path style="fill:#CE593F;" d="M235.255,276.701c0.26,0.284,0.528,0.558,0.773,0.858
			C235.783,277.259,235.515,276.985,235.255,276.701z"/>
		<path style="fill:#CE593F;" d="M234.231,275.638c-0.284-0.268-0.582-0.514-0.88-0.763
			C233.648,275.123,233.947,275.37,234.231,275.638z"/>
		<path style="fill:#CE593F;" d="M283.229,271.242c0.541,0.163,1.071,0.352,1.592,0.564
			C284.3,271.594,283.771,271.405,283.229,271.242z"/>
		<path style="fill:#CE593F;" d="M278.064,270.464c0.765,0,1.515,0.061,2.257,0.155
			C279.579,270.525,278.829,270.464,278.064,270.464z"/>
		<path style="fill:#CE593F;" d="M292.691,277.753c0.502,0.636,0.97,1.305,1.398,2.003
			C293.66,279.058,293.194,278.389,292.691,277.753z"/>
		<path style="fill:#CE593F;" d="M285.292,271.99c0.687,0.301,1.357,0.638,2.002,1.019
			C286.648,272.629,285.979,272.291,285.292,271.99z"/>
		<path style="fill:#CE593F;" d="M231.267,273.348c0.322,0.203,0.639,0.414,0.95,0.637
			C231.905,273.762,231.589,273.551,231.267,273.348z"/>
		<path style="fill:#CE593F;" d="M292.69,277.752c-0.465-0.589-0.966-1.142-1.489-1.671
			C291.724,276.611,292.225,277.164,292.69,277.752z"/>
		<path style="fill:#CE593F;" d="M287.347,273.045c0.619,0.369,1.213,0.78,1.788,1.218
			C288.56,273.826,287.967,273.414,287.347,273.045z"/>
		<path style="fill:#CE593F;" d="M289.495,274.551c0.483,0.387,0.95,0.796,1.396,1.229
			C290.444,275.347,289.979,274.938,289.495,274.551z"/>
		<path style="fill:#CE593F;" d="M226.636,271.224c0.328,0.098,0.646,0.222,0.967,0.338
			C227.281,271.446,226.964,271.322,226.636,271.224z"/>
		<path style="fill:#CE593F;" d="M210.743,322.608c-0.179-0.282-0.35-0.57-0.524-0.856
			C210.393,322.039,210.564,322.326,210.743,322.608z"/>
		<path style="fill:#CE593F;" d="M208.248,318.239c-0.047-0.092-0.1-0.18-0.146-0.272
			C208.148,318.059,208.201,318.147,208.248,318.239z"/>
		<path style="fill:#CE593F;" d="M213.627,326.688c-0.189-0.241-0.383-0.477-0.567-0.722
			C213.245,326.211,213.439,326.447,213.627,326.688z"/>
		<path style="fill:#CE593F;" d="M220.111,333.556c-0.271-0.237-0.541-0.476-0.807-0.719
			C219.57,333.08,219.839,333.318,220.111,333.556z"/>
		<path style="fill:#CE593F;" d="M229.02,272.126c0.333,0.152,0.658,0.321,0.982,0.492
			C229.678,272.447,229.354,272.278,229.02,272.126z"/>
		<path style="fill:#CE593F;" d="M293.873,279.757c-2.474-1.249-5.117-1.968-8.028-1.968c-7.341,0-14.08,4.592-17.253,11.697
			c-1.154,2.585-3.635,4.303-6.462,4.445c-3.047,0.153-5.848,0.153-8.89,0c-2.826-0.142-5.328-1.86-6.482-4.445
			c-0.458-1.025-0.995-1.99-1.594-2.904c0.066,0.005,0.132,0.021,0.198,0.024c-2.826-0.142-5.334-1.86-6.488-4.445
			c-0.374-0.838-0.806-1.633-1.276-2.398c-2.511-1.269-5.523-1.974-8.381-1.974c-10.573,0-19.416,9.212-19.416,20.534
			c0,0.16,0,2.052,0,2.539c0,13.594,5.141,25.962,13.115,35.166c7.603,5.626,16.685,8.926,26.563,8.926
			c26.146,0,47.322-23.066,47.322-51.417c0-0.478,0-2.359,0-2.539C296.803,286.849,295.856,282.99,293.873,279.757z"/>
		<path style="fill:#CE593F;" d="M215.946,329.453c0.172,0.19,0.335,0.388,0.51,0.576
			C216.281,329.842,216.117,329.643,215.946,329.453z"/>
		<path style="fill:#CE593F;" d="M205.984,313.105c0.119,0.311,0.243,0.619,0.367,0.927
			C206.227,313.724,206.103,313.416,205.984,313.105z"/>
		<path style="fill:#CE593F;" d="M224.143,270.663c0.285,0.042,0.561,0.119,0.843,0.174
			C224.704,270.782,224.428,270.705,224.143,270.663z"/>
		<path style="fill:#CE593F;" d="M203.326,303.638c0.048,0.258,0.107,0.51,0.159,0.767
			C203.433,304.149,203.374,303.896,203.326,303.638z"/>
		<path style="fill:#CE593F;" d="M202.615,298.232c0.028,0.327,0.053,0.654,0.086,0.98
			C202.668,298.887,202.643,298.559,202.615,298.232z"/>
		<path style="fill:#CE593F;" d="M204.416,308.325c0.064,0.23,0.118,0.463,0.185,0.691
			C204.535,308.788,204.48,308.554,204.416,308.325z"/>
	</g>
	<g>
		<path style="fill:#84BD93;" d="M195.447,68.187c-1.077,0.025-2.115,0.04-3.055,0.04C193.332,68.227,194.369,68.211,195.447,68.187
			z"/>
		<path style="fill:#84BD93;" d="M287.03,15.042c-0.744,1.228-1.572,2.542-2.478,3.921C285.453,17.589,286.287,16.268,287.03,15.042
			z"/>
		<path style="fill:#84BD93;" d="M199.598,68.027c-1.174,0.064-2.285,0.107-3.348,0.138
			C197.314,68.134,198.423,68.091,199.598,68.027z"/>
		<path style="fill:#84BD93;" d="M281.597,23.28c1.061-1.489,2.048-2.932,2.951-4.309C283.642,20.349,282.657,21.793,281.597,23.28z
			"/>
		<path style="fill:#84BD93;" d="M203.838,67.726c-1.384,0.12-2.728,0.218-4.001,0.29C201.111,67.945,202.453,67.846,203.838,67.726
			z"/>
		<path style="fill:#84BD93;" d="M243.177,35.315c-15.47,8.694-26.82,21.427-34.269,31.876c11.467-1.435,25.439-4.73,38.409-12.02
			c15.476-8.696,26.828-21.435,34.275-31.886C270.129,24.722,256.141,28.029,243.177,35.315z"/>
		<path style="fill:#84BD93;" d="M208.512,67.238c-1.34,0.164-2.643,0.301-3.908,0.418C205.869,67.54,207.17,67.402,208.512,67.238z
			"/>
	</g>
	<path style="fill:#3F2D20;" d="M278.064,255.422c-7.969,0-15.543,2.928-21.536,7.971c-0.995-11.894-3.214-29.479-8.163-49.266
		c-11.426-45.687-32.368-81.89-60.684-105.029v-25.92c1.499,0.054,3.162,0.089,4.979,0.089c16.133,0,39.992-2.599,62.027-14.984
		c34.685-19.491,50.792-55.569,51.46-57.096c0.948-2.162,0.824-4.644-0.331-6.702c-1.158-2.058-3.212-3.454-5.552-3.769
		C300.047,0.687,294.857,0,286.756,0c-16.132,0-39.987,2.6-62.021,14.983c-16.406,9.22-28.631,22.136-37.054,33.364V25.861
		c0-4.154-3.367-7.521-7.521-7.521c-4.154,0-7.521,3.367-7.521,7.521v82.961c-28.483,23.126-49.539,59.441-61.01,105.305
		c-4.949,19.788-7.167,37.375-8.162,49.268c-5.995-5.045-13.568-7.973-21.538-7.973c-18.865,0-34.212,15.959-34.212,35.576
		c0,0.323,0,2.002,0,2.539c0,36.645,28.02,66.459,62.46,66.459c34.442,0,62.462-29.814,62.462-66.459c0-0.539,0-2.218,0-2.539
		c0-19.616-15.349-35.576-34.215-35.576c-7.167,0-14.015,2.366-19.682,6.51c3.036-31.877,14.903-100.322,61.253-139.653
		c46.259,39.266,58.174,107.731,61.24,139.64c-5.662-4.137-12.505-6.497-19.665-6.497c-18.867,0-34.216,15.959-34.216,35.576
		c0,0.316,0,2,0,2.539c0,36.645,28.021,66.459,62.464,66.459c34.441,0,62.46-29.814,62.46-66.459c0-0.538,0-2.216,0-2.539
		C312.278,271.381,296.931,255.422,278.064,255.422z M157.6,293.537c0,28.351-21.273,51.417-47.421,51.417
		c-26.147,0-47.419-23.066-47.419-51.417c0-0.473,0-2.322,0-2.539c0-11.322,8.6-20.534,19.17-20.534
		c7.341,0,14.134,4.592,17.308,11.698c1.155,2.584,3.663,4.302,6.49,4.444c3.047,0.153,5.857,0.153,8.902,0
		c2.827-0.142,5.335-1.86,6.49-4.444c3.175-7.107,9.967-11.698,17.307-11.698c10.572,0,19.174,9.212,19.174,20.534
		C157.6,291.178,157.6,293.064,157.6,293.537z M287.03,15.042c-6.716,11.082-19.824,28.953-39.713,40.129
		c-20.365,11.447-43.225,13.062-54.926,13.055c6.715-11.084,19.825-28.954,39.714-40.131c20.208-11.357,42.915-13.054,54.651-13.054
		C286.848,15.041,286.938,15.041,287.03,15.042z M249.818,344.954c-26.148,0-47.422-23.066-47.422-51.417c0-0.488,0-2.38,0-2.539
		c0-11.322,8.602-20.534,19.175-20.534c7.34,0,14.133,4.592,17.306,11.697c1.154,2.585,3.662,4.303,6.489,4.445
		c3.042,0.153,5.856,0.153,8.903,0c2.826-0.142,5.335-1.86,6.489-4.445c3.173-7.105,9.967-11.697,17.308-11.697
		c10.572,0,19.172,9.212,19.172,20.534c0,0.18,0,2.062,0,2.539C297.236,321.889,275.965,344.954,249.818,344.954z"/>
</g>
<g>
</g>
<g>
</g>
<g>
</g>
<g>
</g>
<g>
</g>
<g>
</g>
<g>
</g>
<g>
</g>
<g>
</g>
<g>
</g>
<g>
</g>
<g>
</g>
<g>
</g>
<g>
</g>
<g>
</g>
</svg>
