<?xml version="1.0" encoding="iso-8859-1"?>
<!-- Generator: Adobe Illustrator 18.0.0, SVG Export Plug-In . SVG Version: 6.00 Build 0)  -->
<!DOCTYPE svg PUBLIC "-//W3C//DTD SVG 1.1//EN" "http://www.w3.org/Graphics/SVG/1.1/DTD/svg11.dtd">
<svg version="1.1" id="Capa_1" xmlns="http://www.w3.org/2000/svg" xmlns:xlink="http://www.w3.org/1999/xlink" x="0px" y="0px"
	 viewBox="0 0 314.569 314.569" style="enable-background:new 0 0 314.569 314.569;" xml:space="preserve">
<g>
	<g>
		<path style="fill:#EF8829;" d="M246.573,118.787c0.385,0.508,0.772,1.013,1.149,1.53
			C247.345,119.8,246.958,119.296,246.573,118.787z"/>
		<path style="fill:#EF8829;" d="M252.624,127.651c0.26,0.426,0.503,0.866,0.758,1.296
			C253.127,128.517,252.884,128.076,252.624,127.651z"/>
		<path style="fill:#EF8829;" d="M249.3,122.562c0.326,0.473,0.66,0.937,0.98,1.417C249.96,123.499,249.626,123.035,249.3,122.562z"
			/>
		<path style="fill:#EF8829;" d="M243.8,115.281c0.412,0.498,0.822,0.998,1.227,1.506C244.622,116.28,244.212,115.779,243.8,115.281
			z"/>
		<path style="fill:#EF8829;" d="M199.157,97.202c-1.535-1.509-3.097-2.98-4.704-4.384C196.06,94.222,197.622,95.693,199.157,97.202
			z"/>
		<path style="fill:#EF8829;" d="M254.901,131.575c0.319,0.576,0.624,1.164,0.934,1.747
			C255.525,132.738,255.221,132.151,254.901,131.575z"/>
		<path style="fill:#EF8829;" d="M199.404,86.207c0.523,0.132,1.048,0.262,1.567,0.405
			C200.451,86.469,199.927,86.338,199.404,86.207z"/>
		<path style="fill:#EF8829;" d="M257.036,135.623c0.317,0.629,0.622,1.266,0.929,1.903
			C257.658,136.889,257.352,136.252,257.036,135.623z"/>
		<path style="fill:#EF8829;" d="M267.108,164.305c0.159,0.735,0.304,1.476,0.451,2.217
			C267.411,165.781,267.267,165.04,267.108,164.305z"/>
		<path style="fill:#EF8829;" d="M264.371,153.886c0.241,0.78,0.475,1.565,0.702,2.354
			C264.845,155.451,264.612,154.667,264.371,153.886z"/>
		<path style="fill:#EF8829;" d="M265.993,159.576c0.174,0.676,0.329,1.361,0.492,2.043
			C266.322,160.937,266.167,160.252,265.993,159.576z"/>
		<path style="fill:#EF8829;" d="M234.866,105.816c0.327,0.302,0.643,0.621,0.967,0.928
			C235.509,106.437,235.193,106.118,234.866,105.816z"/>
		<path style="fill:#EF8829;" d="M239.177,110.083c-0.408-0.428-0.813-0.861-1.228-1.28
			C238.364,109.222,238.769,109.655,239.177,110.083z"/>
		<path style="fill:#EF8829;" d="M259.033,139.81c0.297,0.654,0.589,1.312,0.875,1.974
			C259.622,141.121,259.33,140.464,259.033,139.81z"/>
		<path style="fill:#EF8829;" d="M262.613,148.643c0.232,0.645,0.472,1.285,0.694,1.937
			C263.086,149.928,262.846,149.289,262.613,148.643z"/>
		<path style="fill:#EF8829;" d="M260.887,144.131c0.271,0.666,0.543,1.331,0.802,2.005
			C261.43,145.462,261.158,144.797,260.887,144.131z"/>
		<path style="fill:#EF8829;" d="M240.929,111.959c0.423,0.468,0.84,0.943,1.255,1.421
			C241.768,112.902,241.352,112.427,240.929,111.959z"/>
		<path style="fill:#EF8829;" d="M186.996,84.176c0.454,0.034,0.905,0.089,1.357,0.132C187.9,84.266,187.45,84.211,186.996,84.176z"
			/>
		<path style="fill:#EF8829;" d="M195.297,85.294c0.541,0.104,1.08,0.214,1.618,0.33C196.377,85.508,195.839,85.398,195.297,85.294z
			"/>
		<path style="fill:#EF8829;" d="M191.167,84.618c0.528,0.07,1.052,0.156,1.577,0.238C192.219,84.773,191.695,84.688,191.167,84.618
			z"/>
		<path style="fill:#EF8829;" d="M189.386,88.686c1.505,1.159,2.986,2.356,4.436,3.603
			C192.372,91.042,190.891,89.845,189.386,88.686z"/>
		<path style="fill:#EF8829;" d="M182.784,83.972c1.785,1.161,3.526,2.404,5.245,3.684
			C186.309,86.376,184.569,85.133,182.784,83.972z"/>
		<path style="fill:#EF8829;" d="M209.127,108.392c-1.339-1.715-2.714-3.39-4.132-5.012
			C206.413,105.002,207.788,106.677,209.127,108.392z"/>
		<path style="fill:#EF8829;" d="M230.733,102.246c0.326,0.266,0.659,0.521,0.982,0.793
			C231.392,102.767,231.059,102.512,230.733,102.246z"/>
		<path style="fill:#EF8829;" d="M267.833,167.982c-11.151-27.289-31.526-48.053-56.132-56.196
			c-0.494-0.681-1.013-1.335-1.519-2.002c16.481,21.757,26.541,50.481,26.541,81.956c0,46.405-21.823,86.88-53.94,107.767
			c48.227-0.867,87.245-48.872,87.245-107.767C270.028,183.575,269.253,175.631,267.833,167.982z"/>
		<path style="fill:#EF8829;" d="M204.089,102.381c-1.204-1.345-2.437-2.655-3.694-3.932
			C201.652,99.726,202.885,101.036,204.089,102.381z"/>
		<path style="fill:#EF8829;" d="M223.543,96.947c0.478,0.316,0.956,0.632,1.429,0.958
			C224.499,97.579,224.021,97.263,223.543,96.947z"/>
		<path style="fill:#EF8829;" d="M219.966,94.708c0.489,0.289,0.975,0.585,1.459,0.884C220.94,95.293,220.455,94.997,219.966,94.708
			z"/>
		<path style="fill:#EF8829;" d="M227.087,99.419c0.437,0.321,0.877,0.636,1.309,0.965
			C227.964,100.055,227.524,99.74,227.087,99.419z"/>
		<path style="fill:#EF8829;" d="M216.317,92.673c0.475,0.248,0.942,0.511,1.412,0.769C217.26,93.184,216.792,92.921,216.317,92.673
			z"/>
		<path style="fill:#EF8829;" d="M208.137,88.972c0.224,0.086,0.452,0.161,0.675,0.249
			C208.589,89.133,208.361,89.059,208.137,88.972z"/>
		<path style="fill:#EF8829;" d="M203.545,87.377c0.463,0.145,0.93,0.281,1.39,0.435C204.475,87.658,204.009,87.523,203.545,87.377z
			"/>
		<path style="fill:#EF8829;" d="M212.6,90.843c0.385,0.176,0.762,0.371,1.144,0.554C213.362,91.214,212.985,91.019,212.6,90.843z"
			/>
	</g>
	<g>
		<path style="fill:#EF8829;" d="M58.981,250.622c2.022,3.757,4.229,7.351,6.61,10.764C63.21,257.974,61.003,254.379,58.981,250.622
			z"/>
		<path style="fill:#EF8829;" d="M48.361,223.035c0.539,2.157,1.13,4.285,1.776,6.382C49.492,227.32,48.9,225.191,48.361,223.035z"
			/>
		<path style="fill:#EF8829;" d="M55.712,244.059c0.801,1.749,1.647,3.463,2.524,5.151
			C57.358,247.522,56.513,245.807,55.712,244.059z"/>
		<path style="fill:#EF8829;" d="M50.559,230.717c0.557,1.741,1.15,3.459,1.778,5.155C51.709,234.176,51.115,232.458,50.559,230.717
			z"/>
		<path style="fill:#EF8829;" d="M44.541,191.74c0,2.389,0.087,4.752,0.213,7.103C44.628,196.492,44.541,194.128,44.541,191.74z"/>
		<path style="fill:#EF8829;" d="M52.897,237.378c0.783,2.029,1.605,4.03,2.487,5.988C54.503,241.409,53.68,239.407,52.897,237.378z
			"/>
		<path style="fill:#EF8829;" d="M170.495,94.06c1.291,0.735,2.566,1.503,3.821,2.311C173.06,95.564,171.786,94.795,170.495,94.06z"
			/>
		<path style="fill:#EF8829;" d="M174.736,96.638c2.882,1.878,5.671,3.943,8.353,6.184
			C180.406,100.581,177.62,98.514,174.736,96.638z"/>
		<path style="fill:#EF8829;" d="M183.28,102.983c1.336,1.122,2.647,2.284,3.929,3.491
			C185.927,105.267,184.616,104.105,183.28,102.983z"/>
		<path style="fill:#EF8829;" d="M150.701,86.09c1.528,0.376,3.037,0.816,4.535,1.287C153.738,86.906,152.229,86.466,150.701,86.09z
			"/>
		<path style="fill:#EF8829;" d="M113.998,104.162c0.029-0.004,0.057-0.003,0.086-0.007
			C114.056,104.159,114.027,104.158,113.998,104.162z"/>
		<path style="fill:#EF8829;" d="M161.033,89.459c2.993,1.215,5.915,2.616,8.757,4.199
			C166.948,92.077,164.027,90.673,161.033,89.459z"/>
		<path style="fill:#EF8829;" d="M156.499,87.794c1.149,0.384,2.289,0.793,3.418,1.232
			C158.787,88.588,157.648,88.178,156.499,87.794z"/>
		<path style="fill:#EF8829;" d="M75.145,273.133c1.185,1.252,2.396,2.465,3.635,3.64C77.541,275.598,76.33,274.384,75.145,273.133z
			"/>
		<path style="fill:#EF8829;" d="M88.966,285.124c-1.392-0.978-2.762-1.999-4.105-3.065
			C86.205,283.126,87.574,284.146,88.966,285.124z"/>
		<path style="fill:#EF8829;" d="M94.998,289.021c-1.696-0.988-3.356-2.053-4.99-3.167
			C91.643,286.968,93.302,288.033,94.998,289.021z"/>
		<path style="fill:#EF8829;" d="M59.257,189.841c-0.092-0.471-0.146-0.955-0.146-1.452
			C59.11,188.887,59.164,189.371,59.257,189.841z"/>
		<path style="fill:#EF8829;" d="M187.21,106.475c-6.436-3.743-13.291-6.587-20.465-8.353c-5.687-1.4-11.568-2.138-17.589-2.138
			c-11.937,0-23.326,2.895-33.728,8.128c2.299,0.13,4.447,1.299,5.771,3.217c0.388,0.562,0.711,1.182,0.941,1.861
			c1.333,3.934-0.776,8.203-4.71,9.535c-2.748,0.93-5.399,2.107-7.955,3.482c-21.15,11.381-35.322,37.285-35.322,66.181
			c0,4.154-3.367,7.521-7.521,7.521c-2.395,0-4.503-1.14-5.88-2.884c0.087,0.11,0.157,0.233,0.249,0.337
			c-0.271,3.427-0.415,6.899-0.415,10.411c0,34.661,13.517,65.547,34.468,85.278c11.537,6.709,24.442,10.476,38.058,10.476
			c4.865,0,9.638-0.488,14.292-1.411c42.066-8.341,74.278-52.864,74.278-106.377C221.682,157.081,208.16,126.206,187.21,106.475z"/>
		<path style="fill:#EF8829;" d="M60.293,192.406c-0.117-0.184-0.212-0.382-0.313-0.576
			C60.082,192.024,60.175,192.222,60.293,192.406z"/>
		<path style="fill:#EF8829;" d="M59.661,191.186c-0.103-0.255-0.172-0.525-0.246-0.793C59.489,190.66,59.558,190.93,59.661,191.186
			z"/>
		<path style="fill:#EF8829;" d="M45.525,207.761c0.28,2.276,0.628,4.523,1.024,6.75C46.153,212.284,45.804,210.037,45.525,207.761z
			"/>
		<path style="fill:#EF8829;" d="M44.872,200.722c0.137,2.013,0.315,4.012,0.542,5.993C45.188,204.735,45.01,202.735,44.872,200.722
			z"/>
		<path style="fill:#EF8829;" d="M46.867,216.189c0.349,1.824,0.735,3.629,1.159,5.415
			C47.602,219.818,47.216,218.012,46.867,216.189z"/>
		<path style="fill:#EF8829;" d="M69.763,266.966c-1.137-1.418-2.238-2.877-3.31-4.369
			C67.525,264.089,68.626,265.548,69.763,266.966z"/>
		<path style="fill:#EF8829;" d="M74.265,272.205c-1.378-1.494-2.723-3.032-4.021-4.626
			C71.542,269.173,72.887,270.711,74.265,272.205z"/>
		<path style="fill:#EF8829;" d="M84.114,281.476c-1.544-1.252-3.052-2.564-4.525-3.928
			C81.063,278.912,82.571,280.223,84.114,281.476z"/>
	</g>
	<path style="fill:#3F2D20;" d="M122.14,109.191c-0.23-0.679-0.553-1.299-0.941-1.861c-1.861-2.695-5.343-3.954-8.594-2.85
		c-31.497,10.666-53.494,45.172-53.494,83.909c0,4.154,3.367,7.521,7.521,7.521c4.154,0,7.521-3.367,7.521-7.521
		c0-28.895,14.172-54.8,35.322-66.181c2.556-1.375,5.207-2.552,7.955-3.482C121.363,117.394,123.473,113.125,122.14,109.191z"/>
	<path style="fill:#3F2D20;" d="M181.458,68.91c-5.596,0-11.164,0.548-16.65,1.601V26.644c0-6.397,5.204-11.602,11.6-11.602
		c4.154,0,7.521-3.367,7.521-7.521c0-4.154-3.367-7.521-7.521-7.521c-14.69,0-26.642,11.952-26.642,26.644v43.871
		c-5.424-1.046-10.986-1.605-16.655-1.605c-57.132,0-103.612,55.101-103.612,122.83c0,67.728,46.48,122.829,103.612,122.829
		c8.313,0,16.397-1.174,24.149-3.377c7.888,2.233,16.015,3.377,24.197,3.377c57.132,0,103.612-55.101,103.612-122.829
		C285.07,124.011,238.59,68.91,181.458,68.91z M44.541,191.74c0-59.435,39.733-107.788,88.571-107.788
		c6.021,0,11.902,0.738,17.589,2.138c40.441,9.956,70.981,53.543,70.981,105.65c0,53.513-32.212,98.036-74.278,106.377
		c-4.654,0.923-9.427,1.411-14.292,1.411C84.274,299.527,44.541,251.174,44.541,191.74z M236.723,191.74
		c0-46.406-21.823-86.88-53.94-107.768c48.228,0.866,87.245,48.873,87.245,107.768s-39.017,106.9-87.245,107.767
		C214.9,278.62,236.723,238.145,236.723,191.74z"/>
</g>
<g>
</g>
<g>
</g>
<g>
</g>
<g>
</g>
<g>
</g>
<g>
</g>
<g>
</g>
<g>
</g>
<g>
</g>
<g>
</g>
<g>
</g>
<g>
</g>
<g>
</g>
<g>
</g>
<g>
</g>
</svg>
