<?xml version="1.0" encoding="iso-8859-1"?>
<!-- Generator: Adobe Illustrator 18.0.0, SVG Export Plug-In . SVG Version: 6.00 Build 0)  -->
<!DOCTYPE svg PUBLIC "-//W3C//DTD SVG 1.1//EN" "http://www.w3.org/Graphics/SVG/1.1/DTD/svg11.dtd">
<svg version="1.1" id="Capa_1" xmlns="http://www.w3.org/2000/svg" xmlns:xlink="http://www.w3.org/1999/xlink" x="0px" y="0px"
	 viewBox="0 0 336.242 336.242" style="enable-background:new 0 0 336.242 336.242;" xml:space="preserve">
<g>
	<path style="fill:#FDD44B;" d="M227.8,138.588c0-8.026-23.803-20.161-59.68-20.161c-35.876,0-59.678,12.135-59.678,20.161
		c0,2.197,2.169,5.558,7.797,9.009c13.613-5.934,32.369-9.325,51.881-9.325c19.514,0,38.271,3.39,51.881,9.326
		C225.631,144.146,227.8,140.785,227.8,138.588z"/>
	<path style="fill:#FDD44B;" d="M168.122,277.77c41.646,0,80.683-8.907,109.92-25.082c22.299-12.336,36.561-27.61,41.353-43.93
		c-2.286,2.424-5.509,4.415-5.711,4.536c-21.137,12.681-36.392,8.323-49.852,4.475c-9.837-2.81-18.334-5.241-29.385-1.44
		c-0.217,0.075-0.438,0.139-0.661,0.194c-11.338,2.768-16.714,9.274-22.94,16.806c-8.509,10.294-18.152,21.963-42.422,22.979
		c-0.106,0.005-0.211,0.007-0.315,0.007c-0.105,0-0.21-0.002-0.315-0.007c-24.271-1.02-33.914-12.688-42.422-22.983
		c-6.225-7.534-11.602-14.039-22.941-16.808c-0.223-0.055-0.444-0.12-0.66-0.194c-11.053-3.798-19.546-1.372-29.381,1.439
		c-13.456,3.846-28.711,8.203-49.846-4.476c-0.202-0.121-3.577-2.251-5.147-4.03c2.515,8.54,7.677,16.805,15.467,24.685
		C59.585,260.975,111.414,277.77,168.122,277.77z"/>
	<g>
		<path style="fill:#CE593F;" d="M299.509,98.464c0.638,0.565,1.26,1.134,1.871,1.706C300.768,99.599,300.148,99.029,299.509,98.464
			z"/>
		<path style="fill:#CE593F;" d="M295.786,95.328c0.66,0.529,1.299,1.064,1.935,1.6C297.085,96.392,296.447,95.857,295.786,95.328z"
			/>
		<path style="fill:#CE593F;" d="M291.778,92.265c0.67,0.488,1.314,0.984,1.963,1.478C293.092,93.249,292.449,92.753,291.778,92.265
			z"/>
		<path style="fill:#CE593F;" d="M306.095,104.942c0.563,0.618,1.12,1.237,1.652,1.862
			C307.215,106.18,306.658,105.561,306.095,104.942z"/>
		<path style="fill:#CE593F;" d="M304.72,103.463c-0.578-0.603-1.172-1.202-1.779-1.797
			C303.548,102.262,304.143,102.86,304.72,103.463z"/>
		<path style="fill:#CE593F;" d="M150.436,69.195c0.151-0.066,0.309-0.114,0.463-0.17C150.744,69.082,150.588,69.128,150.436,69.195
			z"/>
		<path style="fill:#CE593F;" d="M152.015,68.709c0.184-0.036,0.369-0.067,0.556-0.089C152.383,68.642,152.2,68.673,152.015,68.709z
			"/>
		<path style="fill:#CE593F;" d="M308.178,107.209c-5.694-4.835-12.427-9.405-20.06-13.627
			C258.881,77.407,219.819,68.5,178.172,68.5c-7.177,0-14.286,0.271-21.272,0.791l-0.946-0.329l23.144,8.114
			c3.919,1.375,5.982,5.666,4.608,9.586c-1.086,3.097-3.993,5.034-7.098,5.034c-0.826,0-1.665-0.137-2.489-0.425l-23.147-8.114
			c-3.919-1.375-5.983-5.666-4.609-9.586c0.536-1.53,1.524-2.764,2.753-3.634c-0.029,0.021-0.065,0.032-0.094,0.053
			c-30.504,3.155-58.5,11.257-80.795,23.59c-8.319,4.602-15.511,9.615-21.521,14.937l23.845-0.918
			c4.174-0.141,7.646,3.075,7.805,7.225c0.161,4.151-3.075,7.645-7.225,7.805l-24.51,0.943c-0.099,0.004-0.197,0.006-0.295,0.006
			c-4.02,0-7.354-3.18-7.51-7.231c0.001,0.034,0.007,0.067,0.009,0.102c-8.999,10.417-13.75,21.743-13.756,33.348l0.34,33.767
			c0.54,5.866,1.475,11.41,5.273,17.057c15.306,9.034,25.146,6.229,37.576,2.677c10.648-3.042,22.707-6.487,38.075-1.312
			c15.961,4.001,23.753,13.431,30.633,21.756c7.71,9.329,13.809,16.71,31.144,17.523c17.333-0.811,23.432-8.191,31.143-17.52
			c6.88-8.325,14.671-17.753,30.632-21.753c15.37-5.175,27.431-1.73,38.08,1.315c12.455,3.559,22.411,6.377,37.777-2.731
			c14.011-10.421,15.656-19.765,15.656-31.527v-29.254C321.399,128.47,316.752,117.417,308.178,107.209z M68.008,158.491
			l-21.794,11.253c-1.103,0.57-2.282,0.84-3.445,0.84c-2.723,0-5.353-1.485-6.688-4.073c-1.906-3.689-0.458-8.226,3.233-10.132
			l21.793-11.253c3.686-1.906,8.226-0.46,10.132,3.233C73.146,152.049,71.699,156.586,68.008,158.491z M211.824,85.436l23.622-6.613
			c4-1.118,8.149,1.216,9.27,5.214c1.119,4-1.215,8.15-5.215,9.271l-23.621,6.613c-0.679,0.189-1.361,0.28-2.032,0.28
			c-3.288,0-6.308-2.173-7.239-5.495C205.49,90.707,207.824,86.557,211.824,85.436z M86.932,101.08
			c-2.107-3.579-0.915-8.19,2.665-10.297l21.135-12.445c3.581-2.106,8.189-0.913,10.297,2.665c2.107,3.579,0.915,8.19-2.665,10.297
			l-21.135,12.445c-1.199,0.705-2.513,1.041-3.809,1.041C90.843,104.785,88.335,103.461,86.932,101.08z M128.392,187.728
			c-1.086,3.096-3.993,5.034-7.098,5.034c-0.826,0-1.665-0.137-2.488-0.425l-23.147-8.115c-3.919-1.375-5.983-5.666-4.609-9.586
			c1.375-3.92,5.663-5.981,9.586-4.609l23.147,8.114C127.701,179.517,129.765,183.808,128.392,187.728z M182.167,199.744
			l-23.183,8.005c-0.813,0.281-1.641,0.414-2.455,0.414c-3.119,0-6.034-1.955-7.108-5.068c-1.356-3.926,0.728-8.208,4.653-9.563
			l23.183-8.006c3.927-1.358,8.209,0.728,9.564,4.653C188.177,194.106,186.093,198.388,182.167,199.744z M168.12,173.79
			c-18.909,0-36.802-3.081-50.381-8.674C102.044,158.65,93.4,149.23,93.4,138.588c0-10.641,8.644-20.062,24.338-26.527
			c13.58-5.595,31.472-8.675,50.381-8.675c18.91,0,36.803,3.081,50.383,8.675c15.695,6.465,24.338,15.886,24.338,26.527
			c0,10.641-8.644,20.062-24.338,26.528C204.924,170.71,187.031,173.79,168.12,173.79z M242.788,189.57
			c-0.09,0-0.18-0.002-0.27-0.005l-24.513-0.865c-4.151-0.146-7.398-3.63-7.251-7.781c0.147-4.151,3.656-7.411,7.781-7.25
			l24.513,0.865c4.151,0.146,7.398,3.63,7.251,7.781C250.156,186.375,246.819,189.57,242.788,189.57z M251.076,111.256
			c0.911-4.053,4.937-6.596,8.985-5.692l23.933,5.37c4.053,0.91,6.601,4.933,5.693,8.985c-0.785,3.499-3.891,5.877-7.332,5.877
			c-0.545,0-1.099-0.06-1.653-0.184l-23.933-5.37C252.716,119.331,250.168,115.308,251.076,111.256z M292.212,159.143l-23.63,6.576
			c-0.675,0.187-1.353,0.277-2.02,0.277c-3.293,0-6.315-2.179-7.242-5.507c-1.113-4.001,1.228-8.149,5.229-9.262l23.629-6.576
			c4.006-1.115,8.149,1.227,9.262,5.229C298.555,153.882,296.214,158.029,292.212,159.143z"/>
		<path style="fill:#CE593F;" d="M282.908,86.375c0.557,0.337,1.083,0.684,1.628,1.026C283.991,87.06,283.465,86.712,282.908,86.375
			z"/>
		<path style="fill:#CE593F;" d="M287.486,89.28c0.65,0.431,1.27,0.872,1.902,1.308C288.756,90.152,288.137,89.711,287.486,89.28z"
			/>
		<path style="fill:#CE593F;" d="M153.739,68.579c0.174,0.006,0.347,0,0.521,0.019C154.085,68.579,153.914,68.585,153.739,68.579z"
			/>
	</g>
	<path style="fill:#3F2D20;" d="M242.842,138.588c0-10.641-8.644-20.062-24.338-26.527c-13.581-5.595-31.474-8.675-50.383-8.675
		s-36.802,3.081-50.381,8.675c-15.695,6.465-24.339,15.887-24.339,26.527c0,10.642,8.644,20.062,24.339,26.528
		c13.58,5.594,31.472,8.674,50.381,8.674c18.911,0,36.804-3.081,50.383-8.674C234.198,158.65,242.842,149.23,242.842,138.588z
		 M220.001,147.598c-13.611-5.935-32.368-9.326-51.881-9.326c-19.513,0-38.269,3.39-51.881,9.325
		c-5.628-3.451-7.797-6.812-7.797-9.009c0-8.026,23.802-20.161,59.678-20.161c35.877,0,59.68,12.135,59.68,20.161
		C227.8,140.785,225.631,144.146,220.001,147.598z M139.792,156.036c8.659-1.767,18.34-2.722,28.328-2.722
		c9.989,0,19.67,0.956,28.328,2.723c-8.648,1.77-18.287,2.711-28.328,2.711C158.078,158.749,148.44,157.807,139.792,156.036z"/>
	<path style="fill:#3F2D20;" d="M97.229,103.745l21.135-12.445c3.579-2.107,4.772-6.718,2.665-10.297
		c-2.107-3.577-6.716-4.77-10.297-2.665L89.597,90.783c-3.579,2.107-4.772,6.718-2.665,10.297c1.402,2.38,3.911,3.705,6.488,3.705
		C94.717,104.786,96.031,104.45,97.229,103.745z"/>
	<path style="fill:#3F2D20;" d="M177.257,185.527l-23.183,8.006c-3.926,1.355-6.01,5.638-4.653,9.563
		c1.074,3.113,3.99,5.068,7.109,5.068c0.814,0,1.642-0.133,2.455-0.414l23.183-8.006c3.926-1.355,6.01-5.638,4.653-9.564
		C185.466,186.256,181.183,184.169,177.257,185.527z"/>
	<path style="fill:#3F2D20;" d="M150.972,83.158l23.147,8.114c0.823,0.288,1.663,0.425,2.488,0.425c3.105,0,6.012-1.938,7.098-5.034
		c1.374-3.92-0.69-8.211-4.609-9.586l-23.147-8.114c-3.922-1.373-8.212,0.689-9.586,4.609
		C144.989,77.492,147.053,81.783,150.972,83.158z"/>
	<path style="fill:#3F2D20;" d="M123.782,178.142l-23.147-8.114c-3.923-1.372-8.211,0.689-9.586,4.609
		c-1.374,3.92,0.69,8.211,4.609,9.586l23.147,8.114c0.824,0.288,1.663,0.425,2.488,0.425c3.105,0,6.012-1.938,7.098-5.034
		C129.765,183.809,127.701,179.517,123.782,178.142z"/>
	<path style="fill:#3F2D20;" d="M288.18,144.651l-23.63,6.576c-4.001,1.113-6.343,5.261-5.229,9.262
		c0.927,3.327,3.949,5.506,7.242,5.506c0.667,0,1.345-0.09,2.02-0.277l23.63-6.576c4.001-1.113,6.343-5.26,5.229-9.262
		C296.328,145.879,292.186,143.537,288.18,144.651z"/>
	<path style="fill:#3F2D20;" d="M61.108,145.126l-21.793,11.253c-3.691,1.906-5.138,6.442-3.233,10.132
		c1.336,2.588,3.965,4.073,6.688,4.073c1.162,0,2.341-0.27,3.444-0.84l21.794-11.253c3.691-1.906,5.138-6.442,3.233-10.132
		C69.334,144.666,64.794,143.22,61.108,145.126z"/>
	<path style="fill:#3F2D20;" d="M70.552,107.6l-24.51,0.944c-4.15,0.16-7.386,3.654-7.225,7.805c0.156,4.051,3.49,7.231,7.51,7.231
		c0.098,0,0.196-0.002,0.295-0.006l24.51-0.944c4.15-0.16,7.386-3.654,7.225-7.805C78.198,110.675,74.726,107.459,70.552,107.6z"/>
	<path style="fill:#3F2D20;" d="M282.355,125.795c3.441,0,6.546-2.378,7.332-5.877c0.909-4.052-1.639-8.075-5.693-8.985
		l-23.933-5.37c-4.048-0.904-8.074,1.639-8.985,5.692c-0.909,4.052,1.639,8.075,5.692,8.985l23.933,5.37
		C281.256,125.735,281.81,125.795,282.355,125.795z"/>
	<path style="fill:#3F2D20;" d="M243.048,174.533l-24.513-0.866c-4.125-0.161-7.634,3.099-7.781,7.251
		c-0.147,4.151,3.099,7.635,7.25,7.781l24.513,0.866c0.09,0.003,0.18,0.005,0.27,0.005c4.031,0,7.368-3.194,7.511-7.256
		C250.446,178.163,247.2,174.679,243.048,174.533z"/>
	<path style="fill:#3F2D20;" d="M213.848,100.202c0.671,0,1.353-0.091,2.032-0.28l23.621-6.613c3.999-1.12,6.334-5.27,5.215-9.271
		c-1.12-3.998-5.27-6.332-9.27-5.215l-23.622,6.613c-3.999,1.12-6.334,5.27-5.215,9.271
		C207.539,98.029,210.559,100.202,213.848,100.202z"/>
	<path style="fill:#3F2D20;" d="M285.323,70.392c-31.43-17.386-73.053-26.961-117.203-26.961S82.346,53.006,50.918,70.392
		C18.083,88.556,0,113.203,0,139.794c0,0.012,0.002,0.023,0.002,0.033c0,0.014-0.002,0.027-0.002,0.042l0.571,56.575
		c-0.172,16.98,7.294,33.602,21.596,48.071c29.446,29.789,85.372,48.295,145.955,48.295c44.15,0,85.773-9.575,117.202-26.961
		c32.835-18.164,50.918-42.812,50.918-69.402v-56.653C336.242,113.203,318.159,88.556,285.323,70.392z M321.2,169.049
		c-0.809,11.762-1.546,21.106-15.557,31.527c-15.367,9.108-25.223,6.29-37.678,2.731c-10.648-3.045-22.71-6.49-38.08-1.314
		c-15.961,3.999-23.752,13.428-30.632,21.752c-7.711,9.33-13.81,16.709-31.143,17.52c-17.335-0.813-23.434-8.194-31.144-17.523
		c-6.88-8.325-14.672-17.754-30.633-21.755c-15.368-5.176-27.426-1.73-38.075,1.312c-12.456,3.56-22.31,6.373-37.672-2.731
		c-12.526-9.32-14.353-17.773-15.204-27.031l-0.34-33.767c0.011-20.862,15.336-40.828,43.157-56.218
		C87.436,67.38,126.474,58.472,168.12,58.472c41.646,0,80.684,8.907,109.921,25.082c27.832,15.395,43.159,35.369,43.159,56.24
		V169.049z M22.545,213.286c21.135,12.68,36.39,8.322,49.846,4.476c9.835-2.811,18.328-5.237,29.381-1.439
		c0.216,0.074,0.437,0.139,0.66,0.194c11.339,2.769,16.716,9.274,22.941,16.808c8.508,10.295,18.151,21.964,42.422,22.983
		c0.105,0.005,0.21,0.007,0.315,0.007c0.105,0,0.21-0.002,0.315-0.007c24.269-1.017,33.913-12.686,42.422-22.979
		c6.226-7.533,11.603-14.038,22.94-16.806c0.223-0.055,0.444-0.119,0.661-0.194c11.051-3.801,19.548-1.37,29.385,1.44
		c13.46,3.848,28.715,8.205,49.852-4.475c0.202-0.121,3.426-2.112,5.711-4.536c-4.793,16.319-19.055,31.594-41.353,43.93
		c-29.237,16.175-68.274,25.082-109.92,25.082c-56.708,0-108.537-16.794-135.258-43.828c-7.789-7.88-12.952-16.145-15.467-24.685
		C18.967,211.035,22.343,213.165,22.545,213.286z"/>
</g>
<g>
</g>
<g>
</g>
<g>
</g>
<g>
</g>
<g>
</g>
<g>
</g>
<g>
</g>
<g>
</g>
<g>
</g>
<g>
</g>
<g>
</g>
<g>
</g>
<g>
</g>
<g>
</g>
<g>
</g>
</svg>
