<?xml version="1.0" encoding="UTF-8" standalone="no"?>
<!-- Created with Inkscape (http://www.inkscape.org/) -->

<svg
   xmlns:dc="http://purl.org/dc/elements/1.1/"
   xmlns:cc="http://creativecommons.org/ns#"
   xmlns:rdf="http://www.w3.org/1999/02/22-rdf-syntax-ns#"
   xmlns:svg="http://www.w3.org/2000/svg"
   xmlns="http://www.w3.org/2000/svg"
   xmlns:sodipodi="http://sodipodi.sourceforge.net/DTD/sodipodi-0.dtd"
   xmlns:inkscape="http://www.inkscape.org/namespaces/inkscape"
   width="39.378845mm"
   height="19.901459mm"
   viewBox="0 0 139.53134 70.516979"
   id="svg2"
   version="1.1"
   inkscape:version="0.91 r13725"
   sodipodi:docname="tbasket.svg">
  <defs
     id="defs4" />
  <sodipodi:namedview
     id="base"
     pagecolor="#ffffff"
     bordercolor="#666666"
     borderopacity="1.0"
     inkscape:pageopacity="0.0"
     inkscape:pageshadow="2"
     inkscape:zoom="5.8700911"
     inkscape:cx="44.746517"
     inkscape:cy="25.5834"
     inkscape:document-units="px"
     inkscape:current-layer="layer1"
     showgrid="false"
     showguides="true"
     inkscape:guide-bbox="true"
     inkscape:window-width="1535"
     inkscape:window-height="876"
     inkscape:window-x="65"
     inkscape:window-y="24"
     inkscape:window-maximized="1"
     fit-margin-top="0"
     fit-margin-left="0"
     fit-margin-right="0"
     fit-margin-bottom="0">
    <sodipodi:guide
       position="-0.14352918,-5.0063417"
       orientation="1,0"
       id="guide4429" />
    <sodipodi:guide
       position="75.617919,70.502552"
       orientation="0,1"
       id="guide4431" />
    <sodipodi:guide
       position="139.51006,-7.2791815"
       orientation="1,0"
       id="guide4433" />
    <sodipodi:guide
       position="86.224519,0.044417918"
       orientation="0,1"
       id="guide4435" />
  </sodipodi:namedview>
  <metadata
     id="metadata7">
    <rdf:RDF>
      <cc:Work
         rdf:about="">
        <dc:format>image/svg+xml</dc:format>
        <dc:type
           rdf:resource="http://purl.org/dc/dcmitype/StillImage" />
        <dc:title />
      </cc:Work>
    </rdf:RDF>
  </metadata>
  <g
     inkscape:label="Layer 1"
     inkscape:groupmode="layer"
     id="layer1"
     transform="translate(-325.16011,-783.89975)">
    <path
       id="path4150"
       d="m 359.04994,844.95195 -12.42415,-58.42796 115.81843,0 0,49.46601 c 0,4.95064 -4.29206,8.96195 -9.58922,8.96195 l -93.80506,0"
       style="fill:#ff8080"
       inkscape:connector-curvature="0" />
    <path
       id="path4168"
       d="m 343.84563,799.63036 c -1.07867,0 -2.0315,-0.77979 -2.21352,-1.87868 l -1.56183,-9.35747 -4.83603,0 c -1.24272,0 -2.24723,-1.00451 -2.24723,-2.24723 0,-1.24271 1.00451,-2.24723 2.24723,-2.24723 l 8.64733,0 2.18431,13.11483 c 0.2045,1.22474 -0.62248,2.38207 -1.84722,2.58432 -0.12809,0.0225 -0.24944,0.0315 -0.37304,0.0315 z"
       style="fill:#707070;fill-opacity:1"
       inkscape:connector-curvature="0" />
    <circle
       id="circle4258"
       r="2.2472291"
       cy="831.46857"
       cx="386.0654"
       style="fill:#ffffff" />
    <circle
       id="circle4264"
       r="2.2472291"
       cy="831.46857"
       cx="426.51553"
       style="fill:#ffffff" />
    <circle
       id="circle4274"
       r="2.2472291"
       cy="838.21027"
       cx="392.8071"
       style="fill:#ffffff" />
    <circle
       id="circle4278"
       r="2.2472291"
       cy="838.21027"
       cx="379.3237"
       style="fill:#ffffff" />
    <circle
       id="circle4282"
       r="2.2472291"
       cy="838.21027"
       cx="433.2572"
       style="fill:#ffffff" />
    <circle
       id="circle4170"
       r="2.2472291"
       cy="797.76013"
       cx="402.29047"
       style="fill:#ffffff" />
    <circle
       id="circle4172"
       r="2.2472291"
       cy="791.01843"
       cx="409.03217"
       style="fill:#ffffff" />
    <circle
       id="circle4174"
       r="2.2472291"
       cy="804.50183"
       cx="409.03217"
       style="fill:#ffffff" />
    <circle
       id="circle4176"
       r="2.2472291"
       cy="797.76013"
       cx="415.77383"
       style="fill:#ffffff" />
    <circle
       id="circle4178"
       r="2.2472291"
       cy="797.76013"
       cx="388.8071"
       style="fill:#ffffff" />
    <circle
       id="circle4180"
       r="2.2472291"
       cy="791.01843"
       cx="395.54877"
       style="fill:#ffffff" />
    <circle
       id="circle4182"
       r="2.2472291"
       cy="804.50183"
       cx="395.54877"
       style="fill:#ffffff" />
    <circle
       id="circle4184"
       r="2.2472291"
       cy="791.01843"
       cx="355.09863"
       style="fill:#ffffff" />
    <circle
       id="circle4186"
       r="2.2472291"
       cy="804.50183"
       cx="355.09863"
       style="fill:#ffffff" />
    <circle
       id="circle4188"
       r="2.2472291"
       cy="797.76013"
       cx="361.84033"
       style="fill:#ffffff" />
    <circle
       id="circle4190"
       r="2.2472291"
       cy="797.76013"
       cx="375.3237"
       style="fill:#ffffff" />
    <circle
       id="circle4192"
       r="2.2472291"
       cy="791.01843"
       cx="368.58203"
       style="fill:#ffffff" />
    <circle
       id="circle4194"
       r="2.2472291"
       cy="791.01843"
       cx="382.0654"
       style="fill:#ffffff" />
    <circle
       id="circle4196"
       r="2.2472291"
       cy="804.50183"
       cx="368.58203"
       style="fill:#ffffff" />
    <circle
       id="circle4198"
       r="2.2472291"
       cy="804.50183"
       cx="382.0654"
       style="fill:#ffffff" />
    <circle
       id="circle4200"
       r="2.2472291"
       cy="797.76013"
       cx="456.22397"
       style="fill:#ffffff" />
    <circle
       id="circle4202"
       r="2.2472291"
       cy="791.01843"
       cx="422.51553"
       style="fill:#ffffff" />
    <circle
       id="circle4204"
       r="2.2472291"
       cy="804.50183"
       cx="422.51553"
       style="fill:#ffffff" />
    <circle
       id="circle4206"
       r="2.2472291"
       cy="797.76013"
       cx="429.2572"
       style="fill:#ffffff" />
    <circle
       id="circle4208"
       r="2.2472291"
       cy="797.76013"
       cx="442.7406"
       style="fill:#ffffff" />
    <circle
       id="circle4210"
       r="2.2472291"
       cy="811.24353"
       cx="402.29047"
       style="fill:#ffffff" />
    <circle
       id="circle4212"
       r="2.2472291"
       cy="811.24353"
       cx="415.77383"
       style="fill:#ffffff" />
    <circle
       id="circle4214"
       r="2.2472291"
       cy="811.24353"
       cx="388.8071"
       style="fill:#ffffff" />
    <circle
       id="circle4216"
       r="2.2472291"
       cy="811.24353"
       cx="361.84033"
       style="fill:#ffffff" />
    <circle
       id="circle4218"
       r="2.2472291"
       cy="811.24353"
       cx="375.3237"
       style="fill:#ffffff" />
    <circle
       id="circle4220"
       r="2.2472291"
       cy="811.24353"
       cx="456.22397"
       style="fill:#ffffff" />
    <circle
       id="circle4222"
       r="2.2472291"
       cy="811.24353"
       cx="429.2572"
       style="fill:#ffffff" />
    <circle
       id="circle4224"
       r="2.2472291"
       cy="811.24353"
       cx="442.7406"
       style="fill:#ffffff" />
    <circle
       id="circle4226"
       r="2.2472291"
       cy="791.01843"
       cx="435.9989"
       style="fill:#ffffff" />
    <circle
       id="circle4228"
       r="2.2472291"
       cy="791.01843"
       cx="449.48227"
       style="fill:#ffffff" />
    <circle
       id="circle4230"
       r="2.2472291"
       cy="804.50183"
       cx="435.9989"
       style="fill:#ffffff" />
    <circle
       id="circle4232"
       r="2.2472291"
       cy="804.50183"
       cx="449.48227"
       style="fill:#ffffff" />
    <circle
       id="circle4234"
       r="2.2472291"
       cy="824.72687"
       cx="402.29047"
       style="fill:#ffffff" />
    <circle
       id="circle4236"
       r="2.2472291"
       cy="817.98517"
       cx="409.03217"
       style="fill:#ffffff" />
    <circle
       id="circle4238"
       r="2.2472291"
       cy="831.46857"
       cx="409.03217"
       style="fill:#ffffff" />
    <circle
       id="circle4240"
       r="2.2472291"
       cy="824.72687"
       cx="415.77383"
       style="fill:#ffffff" />
    <circle
       id="circle4242"
       r="2.2472291"
       cy="824.72687"
       cx="388.8071"
       style="fill:#ffffff" />
    <circle
       id="circle4244"
       r="2.2472291"
       cy="817.98517"
       cx="395.54877"
       style="fill:#ffffff" />
    <circle
       id="circle4246"
       r="2.2472291"
       cy="831.46857"
       cx="395.54877"
       style="fill:#ffffff" />
    <circle
       id="circle4248"
       r="2.2472291"
       cy="824.72687"
       cx="361.84033"
       style="fill:#ffffff" />
    <circle
       id="circle4250"
       r="2.2472291"
       cy="824.72687"
       cx="375.3237"
       style="fill:#ffffff" />
    <circle
       id="circle4252"
       r="2.2472291"
       cy="817.98517"
       cx="368.58203"
       style="fill:#ffffff" />
    <circle
       id="circle4254"
       r="2.2472291"
       cy="817.98517"
       cx="382.0654"
       style="fill:#ffffff" />
    <circle
       id="circle4256"
       r="2.2472291"
       cy="831.46857"
       cx="368.58203"
       style="fill:#ffffff" />
    <circle
       id="circle4260"
       r="2.2472291"
       cy="824.72687"
       cx="456.22397"
       style="fill:#ffffff" />
    <circle
       id="circle4262"
       r="2.2472291"
       cy="817.98517"
       cx="422.51553"
       style="fill:#ffffff" />
    <circle
       id="circle4266"
       r="2.2472291"
       cy="824.72687"
       cx="429.2572"
       style="fill:#ffffff" />
    <circle
       id="circle4268"
       r="2.2472291"
       cy="824.72687"
       cx="442.7406"
       style="fill:#ffffff" />
    <circle
       id="circle4270"
       r="2.2472291"
       cy="838.21027"
       cx="402.29047"
       style="fill:#ffffff" />
    <circle
       id="circle4272"
       r="2.2472291"
       cy="838.21027"
       cx="415.77383"
       style="fill:#ffffff" />
    <circle
       id="circle4276"
       r="2.2472291"
       cy="838.21027"
       cx="361.84033"
       style="fill:#ffffff" />
    <circle
       id="circle4280"
       r="2.2472291"
       cy="838.21027"
       cx="456.22397"
       style="fill:#ffffff" />
    <circle
       id="circle4284"
       r="2.2472291"
       cy="838.21027"
       cx="442.7406"
       style="fill:#ffffff" />
    <circle
       id="circle4286"
       r="2.2472291"
       cy="817.98517"
       cx="435.9989"
       style="fill:#ffffff" />
    <circle
       id="circle4288"
       r="2.2472291"
       cy="817.98517"
       cx="449.48227"
       style="fill:#ffffff" />
    <circle
       id="circle4290"
       r="2.2472291"
       cy="831.46857"
       cx="435.9989"
       style="fill:#ffffff" />
    <circle
       id="circle4292"
       r="2.2472291"
       cy="831.46857"
       cx="449.48227"
       style="fill:#ffffff" />
    <circle
       id="circle4296"
       r="6.7416878"
       cy="790.83923"
       cx="331.90179"
       style="fill:#ff8080" />
    <g
       id="g4300"
       transform="matrix(2.2472292,0,0,2.2472292,332.10493,757.31001)" />
    <g
       id="g4302"
       transform="matrix(2.2472292,0,0,2.2472292,332.10493,757.31001)" />
    <g
       id="g4304"
       transform="matrix(2.2472292,0,0,2.2472292,332.10493,757.31001)" />
    <g
       id="g4306"
       transform="matrix(2.2472292,0,0,2.2472292,332.10493,757.31001)" />
    <g
       id="g4308"
       transform="matrix(2.2472292,0,0,2.2472292,332.10493,757.31001)" />
    <g
       id="g4310"
       transform="matrix(2.2472292,0,0,2.2472292,332.10493,757.31001)" />
    <g
       id="g4312"
       transform="matrix(2.2472292,0,0,2.2472292,332.10493,757.31001)" />
    <g
       id="g4314"
       transform="matrix(2.2472292,0,0,2.2472292,332.10493,757.31001)" />
    <g
       id="g4316"
       transform="matrix(2.2472292,0,0,2.2472292,332.10493,757.31001)" />
    <g
       id="g4318"
       transform="matrix(2.2472292,0,0,2.2472292,332.10493,757.31001)" />
    <g
       id="g4320"
       transform="matrix(2.2472292,0,0,2.2472292,332.10493,757.31001)" />
    <g
       id="g4322"
       transform="matrix(2.2472292,0,0,2.2472292,332.10493,757.31001)" />
    <g
       id="g4324"
       transform="matrix(2.2472292,0,0,2.2472292,332.10493,757.31001)" />
    <g
       id="g4326"
       transform="matrix(2.2472292,0,0,2.2472292,332.10493,757.31001)" />
    <g
       id="g4328"
       transform="matrix(2.2472292,0,0,2.2472292,332.10493,757.31001)" />
    <circle
       id="circle4240-3"
       r="2.2472291"
       cy="831.64386"
       cx="421.86496"
       style="fill:#ffffff" />
    <circle
       id="circle4216-6"
       r="2.2472291"
       cy="817.75427"
       cx="355.44742"
       style="fill:#ffffff" />
    <path
       id="path4298"
       d="m 452.60969,847.19918 -96.50391,0 -13.48205,-63.17496 122.06772,0 0,51.92305 c 0,6.20468 -5.41947,11.25191 -12.08176,11.25191 z m -92.52592,-4.5125 92.52349,0 c 3.99254,0 7.23889,-3.02337 7.23889,-6.73941 l 0,-47.41055 -111.31599,0 11.55361,54.14996 z"
       style="fill:#707070;fill-opacity:1"
       inkscape:connector-curvature="0" />
    <circle
       style="fill:#ffffff"
       cx="383.60489"
       cy="840.93335"
       r="11.236146"
       id="circle4154" />
    <path
       inkscape:connector-curvature="0"
       style="fill:#707070;fill-opacity:1"
       d="m 383.60489,854.41673 c -7.43608,0 -13.48337,-6.0473 -13.48337,-13.48338 0,-7.43608 6.04729,-13.48337 13.48337,-13.48337 7.43608,0 13.48338,6.04729 13.48338,13.48337 0,7.43608 -6.0473,13.48338 -13.48338,13.48338 z m 0,-22.4723 c -4.95739,0 -8.98891,4.03153 -8.98891,8.98892 0,4.95739 4.03152,8.98892 8.98891,8.98892 4.95739,0 8.98892,-4.03153 8.98892,-8.98892 0,-4.95739 -4.03153,-8.98892 -8.98892,-8.98892 z"
       id="path4156" />
    <circle
       style="fill:#ffffff"
       cx="432.47263"
       cy="840.93335"
       r="11.236146"
       id="circle4160" />
    <path
       inkscape:connector-curvature="0"
       style="fill:#707070;fill-opacity:1"
       d="m 432.47263,854.41673 c -7.43608,0 -13.48337,-6.0473 -13.48337,-13.48338 0,-7.43608 6.04729,-13.48337 13.48337,-13.48337 7.43609,0 13.48338,6.04729 13.48338,13.48337 0,7.43608 -6.04729,13.48338 -13.48338,13.48338 z m 0,-22.4723 c -4.95738,0 -8.98891,4.03153 -8.98891,8.98892 0,4.95739 4.03153,8.98892 8.98891,8.98892 4.95739,0 8.98892,-4.03153 8.98892,-8.98892 0,-4.95739 -4.03153,-8.98892 -8.98892,-8.98892 z"
       id="path4162" />
  </g>
</svg>
