<?xml version="1.0" encoding="UTF-8" standalone="no"?>
<!-- Generator: Adobe Illustrator 18.0.0, SVG Export Plug-In . SVG Version: 6.00 Build 0)  -->

<svg
   xmlns:dc="http://purl.org/dc/elements/1.1/"
   xmlns:cc="http://creativecommons.org/ns#"
   xmlns:rdf="http://www.w3.org/1999/02/22-rdf-syntax-ns#"
   xmlns:svg="http://www.w3.org/2000/svg"
   xmlns="http://www.w3.org/2000/svg"
   xmlns:sodipodi="http://sodipodi.sourceforge.net/DTD/sodipodi-0.dtd"
   xmlns:inkscape="http://www.inkscape.org/namespaces/inkscape"
   version="1.1"
   id="Capa_1"
   x="0px"
   y="0px"
   viewBox="0 0 473.506 473.506"
   style="enable-background:new 0 0 473.506 473.506;"
   xml:space="preserve"
   inkscape:version="0.91 r13725"
   sodipodi:docname="hfloor.svg"><metadata
     id="metadata59"><rdf:RDF><cc:Work
         rdf:about=""><dc:format>image/svg+xml</dc:format><dc:type
           rdf:resource="http://purl.org/dc/dcmitype/StillImage" /><dc:title /></cc:Work></rdf:RDF></metadata><defs
     id="defs57" /><sodipodi:namedview
     pagecolor="#ffffff"
     bordercolor="#666666"
     borderopacity="1"
     objecttolerance="10"
     gridtolerance="10"
     guidetolerance="10"
     inkscape:pageopacity="0"
     inkscape:pageshadow="2"
     inkscape:window-width="676"
     inkscape:window-height="480"
     id="namedview55"
     showgrid="false"
     inkscape:zoom="0.51530497"
     inkscape:cx="-52.396152"
     inkscape:cy="236.75301"
     inkscape:window-x="75"
     inkscape:window-y="34"
     inkscape:window-maximized="0"
     inkscape:current-layer="Capa_1" /><g
     id="g3"
     style="fill:#b3b3b3"><path
       d="M17.765,92.069h184.13c9.811,0,17.764-7.953,17.764-17.765V20.397c0-9.811-7.953-17.765-17.764-17.765H17.765   C7.954,2.632,0,10.585,0,20.397v53.908C0,84.116,7.954,92.069,17.765,92.069z"
       id="path5"
       style="fill:#b3b3b3" /><path
       d="M270.301,92.069h184.131c9.811,0,17.764-7.953,17.764-17.765V20.397c0-9.811-7.953-17.765-17.764-17.765H270.301   c-9.811,0-17.764,7.953-17.764,17.765v53.908C252.537,84.116,260.49,92.069,270.301,92.069z"
       id="path7"
       style="fill:#b3b3b3" /><path
       d="M329.474,128.9H145.343c-9.811,0-17.764,7.953-17.764,17.764v53.909c0,9.811,7.954,17.765,17.764,17.765h184.131   c9.811,0,17.764-7.954,17.764-17.765v-53.909C347.238,136.854,339.284,128.9,329.474,128.9z"
       id="path9"
       style="fill:#b3b3b3" /><path
       d="M397.879,128.9c-9.811,0-17.764,7.953-17.764,17.764v53.909c0,9.811,7.954,17.765,17.764,17.765h75.627V128.9H397.879z"
       id="path11"
       style="fill:#b3b3b3" /><path
       d="M1.311,128.9v89.438h75.627c9.811,0,17.764-7.954,17.764-17.765v-53.909c0-9.811-7.953-17.764-17.764-17.764H1.311z"
       id="path13"
       style="fill:#b3b3b3" /><path
       d="M329.474,381.437H145.343c-9.811,0-17.764,7.953-17.764,17.764v53.909c0,9.812,7.954,17.765,17.764,17.765h184.131   c9.811,0,17.764-7.953,17.764-17.765V399.2C347.238,389.39,339.284,381.437,329.474,381.437z"
       id="path15"
       style="fill:#b3b3b3" /><path
       d="M380.115,399.2v53.909c0,9.812,7.954,17.765,17.764,17.765h75.627v-89.438h-75.627   C388.068,381.437,380.115,389.39,380.115,399.2z"
       id="path17"
       style="fill:#b3b3b3" /><path
       d="M76.938,381.437H1.311v89.438h75.627c9.811,0,17.764-7.953,17.764-17.765V399.2   C94.701,389.39,86.748,381.437,76.938,381.437z"
       id="path19"
       style="fill:#b3b3b3" /><path
       d="M17.765,344.606h184.13c9.811,0,17.764-7.953,17.764-17.765v-53.908c0-9.811-7.953-17.765-17.764-17.765H17.765   C7.954,255.168,0,263.121,0,272.933v53.908C0,336.652,7.954,344.606,17.765,344.606z"
       id="path21"
       style="fill:#b3b3b3" /><path
       d="M252.537,272.933v53.908c0,9.811,7.953,17.765,17.764,17.765h184.131c9.811,0,17.764-7.953,17.764-17.765v-53.908   c0-9.811-7.953-17.765-17.764-17.765H270.301C260.49,255.168,252.537,263.121,252.537,272.933z"
       id="path23"
       style="fill:#b3b3b3" /></g><g
     id="g25" /><g
     id="g27" /><g
     id="g29" /><g
     id="g31" /><g
     id="g33" /><g
     id="g35" /><g
     id="g37" /><g
     id="g39" /><g
     id="g41" /><g
     id="g43" /><g
     id="g45" /><g
     id="g47" /><g
     id="g49" /><g
     id="g51" /><g
     id="g53" /></svg>